# xmcd
#
# Track frame offsets: 
#        150
#        17931
#        33147
#        45625
#        60845
#        74478
#        91180
#        105594
#        119586
#        130349
#        144049
#        156983
#        171437
#        184284
#        199401
#
# Disc length: 2858 seconds
#
# Revision: 0
# Processed by: cddbd v1.5.2PL0 Copyright (c) Steve Scherf et al.
# Submitted via: ExactAudioCopy v1.0b3
#
DISCID=d20b280f
DTITLE=Los Visconti - Los años Maravillosos Disco 2
DYEAR=2000
DGENRE=Latin
TTITLE0=Mama vieja
TTITLE1=Odiame
TTITLE2=No es que me arrepienta
TTITLE3=Libadora (Calculadora)
TTITLE4=Arbolito sos testigo
TTITLE5=Quien te amaba ya se va
TTITLE6=Sus ojos se cerraron
TTITLE7=Mujer ingrata
TTITLE8=Tu culpa pagaras
TTITLE9=Veneno
TTITLE10=Caminito
TTITLE11=Si te has quedado sola
TTITLE12=Noche triste
TTITLE13=Paisaje Colombiano
TTITLE14=Abandonada
EXTD=YEAR: 2000 ID3G: 86
EXTT0=
EXTT1=
EXTT2=
EXTT3=
EXTT4=
EXTT5=
EXTT6=
EXTT7=
EXTT8=
EXTT9=
EXTT10=
EXTT11=
EXTT12=
EXTT13=
EXTT14=
PLAYORDER=
